<svg width="50" height="38" viewBox="0 0 50 38" fill="none" xmlns="http://www.w3.org/2000/svg">
<path d="M26.8247 15.5984C26.8247 14.6043 26.0188 13.7984 25.0247 13.7984C24.0306 13.7984 23.2247 14.6043 23.2247 15.5984H26.8247ZM25.0247 35.7584H23.2247C23.2247 36.3557 23.5208 36.914 24.0155 37.249C24.5101 37.5838 25.1387 37.6515 25.6931 37.4297L25.0247 35.7584ZM41.8247 29.0384L42.4931 30.7098C43.1766 30.4364 43.6247 29.7745 43.6247 29.0384H41.8247ZM43.6247 15.068C43.6247 14.0739 42.8188 13.268 41.8247 13.268C40.8306 13.268 40.0247 14.0739 40.0247 15.068H43.6247ZM26.1138 14.1653C25.3223 13.5638 24.1931 13.7178 23.5916 14.5093C22.99 15.3008 23.144 16.43 23.9356 17.0314L26.1138 14.1653ZM31.0247 20.1584L29.9356 21.5914C30.4696 21.9975 31.1852 22.0726 31.7922 21.7865L31.0247 20.1584ZM42.5922 16.6961C43.4912 16.2723 43.8767 15.1997 43.4528 14.3005C43.029 13.4013 41.9564 13.0159 41.0572 13.4398L42.5922 16.6961ZM24.3563 13.9271C23.4332 14.2964 22.9842 15.344 23.3533 16.2668C23.7227 17.1898 24.7703 17.6389 25.6931 17.2697L24.3563 13.9271ZM42.4931 10.5497C43.4161 10.1804 43.8652 9.13289 43.496 8.20989C43.1267 7.28688 42.0791 6.83793 41.1563 7.20713L42.4931 10.5497ZM41.1563 10.5497C42.0791 10.9188 43.1267 10.4699 43.496 9.54689C43.8652 8.62389 43.4161 7.57634 42.4931 7.20713L41.1563 10.5497ZM25.6931 0.487125C24.7703 0.117933 23.7227 0.566877 23.3533 1.48989C22.9842 2.41288 23.4332 3.46044 24.3563 3.82965L25.6931 0.487125ZM42.7043 7.30788C41.8367 6.82214 40.7399 7.13153 40.2541 7.99891C39.7684 8.86627 40.0777 9.96316 40.9451 10.4489L42.7043 7.30788ZM47.8247 12.2384L48.5924 13.8664C49.202 13.5789 49.6 12.9749 49.6235 12.3012C49.647 11.6276 49.2923 10.9972 48.7043 10.6679L47.8247 12.2384ZM41.0572 13.4398C40.1579 13.8638 39.7727 14.9367 40.1968 15.8357C40.6206 16.735 41.6932 17.1202 42.5922 16.6961L41.0572 13.4398ZM7.55619 7.20713C6.63317 7.57634 6.18423 8.62389 6.55342 9.54689C6.92263 10.4699 7.97019 10.9188 8.89318 10.5497L7.55619 7.20713ZM25.6931 3.82965C26.6161 3.46044 27.0652 2.41288 26.696 1.48989C26.3267 0.566877 25.2791 0.117933 24.3563 0.487125L25.6931 3.82965ZM9.10416 10.4489C9.97155 9.96316 10.2809 8.86627 9.79519 7.99891C9.30946 7.13153 8.21256 6.82214 7.3452 7.30788L9.10416 10.4489ZM2.22468 12.2384L1.3452 10.6679C0.757082 10.9972 0.402242 11.6276 0.425786 12.3012C0.449306 12.9749 0.847226 13.5789 1.4569 13.8664L2.22468 12.2384ZM7.4569 16.6959C8.35603 17.12 9.42869 16.735 9.85272 15.8357C10.2768 14.9367 9.8916 13.864 8.99247 13.4399L7.4569 16.6959ZM8.89318 7.20713C7.97019 6.83793 6.92263 7.28688 6.55342 8.20989C6.18423 9.13289 6.63317 10.1804 7.55619 10.5497L8.89318 7.20713ZM24.3563 17.2697C25.2791 17.6389 26.3267 17.1898 26.696 16.2668C27.0652 15.344 26.6161 14.2964 25.6931 13.9271L24.3563 17.2697ZM26.8247 15.5984C26.8247 14.6043 26.0188 13.7984 25.0247 13.7984C24.0306 13.7984 23.2247 14.6043 23.2247 15.5984H26.8247ZM25.0247 35.7584L24.3563 37.4297C24.9107 37.6515 25.5392 37.5838 26.0339 37.249C26.5285 36.914 26.8247 36.3557 26.8247 35.7584H25.0247ZM8.22468 29.0384H6.42468C6.42468 29.7745 6.87279 30.4364 7.55619 30.7098L8.22468 29.0384ZM10.0247 15.068C10.0247 14.0739 9.21879 13.268 8.22468 13.268C7.23058 13.268 6.42468 14.0739 6.42468 15.068H10.0247ZM26.1138 17.0314C26.9053 16.43 27.0594 15.3008 26.4577 14.5093C25.8563 13.7178 24.7271 13.5638 23.9356 14.1653L26.1138 17.0314ZM19.0247 20.1584L18.2573 21.7865C18.8641 22.0726 19.5797 21.9975 20.1138 21.5914L19.0247 20.1584ZM8.99247 13.4399C8.09323 13.0161 7.02031 13.4013 6.59647 14.3005C6.17263 15.1997 6.55767 16.2721 7.4569 16.6959L8.99247 13.4399ZM23.2247 15.5984V35.7584H26.8247V15.5984H23.2247ZM25.6931 37.4297L42.4931 30.7098L41.1563 27.367L24.3563 34.087L25.6931 37.4297ZM43.6247 29.0384V15.068H40.0247V29.0384H43.6247ZM23.9356 17.0314L29.9356 21.5914L32.1138 18.7253L26.1138 14.1653L23.9356 17.0314ZM31.7922 21.7865L42.5922 16.6961L41.0572 13.4398L30.2572 18.5302L31.7922 21.7865ZM25.6931 17.2697L42.4931 10.5497L41.1563 7.20713L24.3563 13.9271L25.6931 17.2697ZM42.4931 7.20713L25.6931 0.487125L24.3563 3.82965L41.1563 10.5497L42.4931 7.20713ZM40.9451 10.4489L46.9451 13.8089L48.7043 10.6679L42.7043 7.30788L40.9451 10.4489ZM47.0569 10.6103L41.0572 13.4398L42.5922 16.6961L48.5924 13.8664L47.0569 10.6103ZM8.89318 10.5497L25.6931 3.82965L24.3563 0.487125L7.55619 7.20713L8.89318 10.5497ZM7.3452 7.30788L1.3452 10.6679L3.10416 13.8089L9.10416 10.4489L7.3452 7.30788ZM1.4569 13.8664L7.4569 16.6959L8.99247 13.4399L2.99247 10.6103L1.4569 13.8664ZM7.55619 10.5497L24.3563 17.2697L25.6931 13.9271L8.89318 7.20713L7.55619 10.5497ZM23.2247 15.5984V35.7584H26.8247V15.5984H23.2247ZM25.6931 34.087L8.89318 27.367L7.55619 30.7098L24.3563 37.4297L25.6931 34.087ZM10.0247 29.0384V15.068H6.42468V29.0384H10.0247ZM23.9356 14.1653L17.9355 18.7253L20.1138 21.5914L26.1138 17.0314L23.9356 14.1653ZM19.7921 18.5302L8.99247 13.4399L7.4569 16.6959L18.2573 21.7865L19.7921 18.5302Z" fill="white"/>
</svg>
